<svg width="527" height="527" viewBox="0 0 527 527" fill="none" xmlns="http://www.w3.org/2000/svg">
<g clip-path="url(#clip0_317_7)">
<path d="M526.981 263.495C286.409 250.832 276.164 240.587 263.495 0.015625C250.832 240.587 240.587 250.832 0.015625 263.495C240.587 276.158 250.838 286.409 263.501 526.981C276.164 286.409 286.415 276.158 526.986 263.495H526.981Z" stroke="#005293" stroke-width="0.933054" stroke-miterlimit="10"/>
<path d="M263.492 503.023C251.98 284.32 242.664 275.004 23.9609 263.492C242.664 251.98 251.98 242.664 263.492 23.9609C275.004 242.664 284.32 251.98 503.023 263.492C284.32 275.004 275.004 284.32 263.492 503.023Z" stroke="#005293" stroke-width="0.933054" stroke-miterlimit="10"/>
<path d="M479.076 263.499C282.246 253.137 273.86 244.751 263.499 47.9219C253.137 244.751 244.751 253.137 47.9219 263.499C244.751 273.86 253.137 282.246 263.499 479.076C273.86 282.246 282.246 273.86 479.076 263.499Z" stroke="#005293" stroke-width="0.933054" stroke-miterlimit="10"/>
<path d="M263.49 455.12C254.279 280.159 246.829 272.709 71.8672 263.498C246.829 254.287 254.279 246.837 263.49 71.875C272.701 246.837 280.151 254.287 455.112 263.498C280.151 272.709 272.701 280.159 263.49 455.12V455.12Z" stroke="#005293" stroke-width="0.933054" stroke-miterlimit="10"/>
<path d="M431.169 263.494C278.075 255.434 271.555 248.914 263.494 95.8203C255.434 248.914 248.914 255.434 95.8203 263.494C248.914 271.555 255.434 278.075 263.494 431.169C271.555 278.075 278.075 271.555 431.169 263.494V263.494Z" stroke="#005293" stroke-width="0.933054" stroke-miterlimit="10"/>
<path d="M263.493 407.213C256.584 275.993 250.993 270.403 119.773 263.493C250.993 256.584 256.584 250.993 263.493 119.773C270.403 250.993 275.993 256.584 407.213 263.493C275.993 270.403 270.403 275.993 263.493 407.213Z" stroke="#005293" stroke-width="0.933054" stroke-miterlimit="10"/>
<path d="M383.266 263.5C273.914 257.741 269.259 253.086 263.5 143.734C257.741 253.086 253.086 257.741 143.734 263.5C253.086 269.259 257.741 273.914 263.5 383.266C269.259 273.914 273.914 269.259 383.266 263.5V263.5Z" stroke="#005293" stroke-width="0.933054" stroke-miterlimit="10"/>
<path d="M263.491 359.31C258.888 271.826 255.158 268.101 167.68 263.499C255.163 258.896 258.888 255.165 263.491 167.688C268.094 255.171 271.824 258.896 359.302 263.499C271.819 268.101 268.094 271.832 263.491 359.31V359.31Z" stroke="#005293" stroke-width="0.933054" stroke-miterlimit="10"/>
<path d="M335.363 263.498C269.753 260.046 266.957 257.25 263.505 191.641C260.054 257.25 257.258 260.046 191.648 263.498C257.258 266.95 260.054 269.745 263.505 335.355C266.957 269.745 269.753 266.95 335.363 263.498V263.498Z" stroke="#005293" stroke-width="0.933054" stroke-miterlimit="10"/>
<path d="M263.495 311.403C261.193 267.661 259.328 265.802 215.586 263.495C259.328 261.193 261.187 259.328 263.495 215.586C265.796 259.328 267.661 261.187 311.403 263.495C267.661 265.796 265.802 267.661 263.495 311.403Z" stroke="#005293" stroke-width="0.933054" stroke-miterlimit="10"/>
<path d="M287.448 263.493C265.58 262.343 264.644 261.413 263.493 239.539C262.343 261.407 261.413 262.343 239.539 263.493C261.407 264.644 262.343 265.574 263.493 287.448C264.644 265.58 265.574 264.644 287.448 263.493V263.493Z" stroke="#005293" stroke-width="0.933054" stroke-miterlimit="10"/>
<path d="M263.5 203.359V466.845" stroke="#005293" stroke-width="0.933054" stroke-miterlimit="10"/>
<path d="M242.93 206.992C284.068 320.022 291.908 341.553 333.046 454.584" stroke="#005293" stroke-width="0.933054" stroke-miterlimit="10"/>
<path d="M224.844 217.43C302.163 309.574 316.889 327.124 394.209 419.269" stroke="#005293" stroke-width="0.933054" stroke-miterlimit="10"/>
<path d="M211.414 233.43C315.582 293.571 335.428 305.031 439.596 365.172" stroke="#005293" stroke-width="0.933054" stroke-miterlimit="10"/>
<path d="M204.266 253.055C322.724 273.941 345.289 277.921 463.747 298.807" stroke="#005293" stroke-width="0.933054" stroke-miterlimit="10"/>
<path d="M204.266 273.948C322.724 253.062 345.289 249.081 463.747 228.195" stroke="#005293" stroke-width="0.933054" stroke-miterlimit="10"/>
<path d="M211.414 293.571C315.582 233.429 335.428 221.97 439.596 161.828" stroke="#005293" stroke-width="0.933054" stroke-miterlimit="10"/>
<path d="M224.844 309.573C302.163 217.429 316.889 199.879 394.209 107.734" stroke="#005293" stroke-width="0.933054" stroke-miterlimit="10"/>
<path d="M242.93 320.013C284.068 206.983 291.908 185.452 333.046 72.4219" stroke="#005293" stroke-width="0.933054" stroke-miterlimit="10"/>
<path d="M263.5 323.649V60.1641" stroke="#005293" stroke-width="0.933054" stroke-miterlimit="10"/>
<path d="M284.069 320.013C242.931 206.983 235.091 185.452 193.953 72.4219" stroke="#005293" stroke-width="0.933054" stroke-miterlimit="10"/>
<path d="M302.154 309.573C224.835 217.429 210.109 199.879 132.789 107.734" stroke="#005293" stroke-width="0.933054" stroke-miterlimit="10"/>
<path d="M315.58 293.571C211.412 233.429 191.566 221.97 87.3984 161.828" stroke="#005293" stroke-width="0.933054" stroke-miterlimit="10"/>
<path d="M322.724 273.948C204.266 253.062 181.7 249.081 63.2422 228.195" stroke="#005293" stroke-width="0.933054" stroke-miterlimit="10"/>
<path d="M322.724 253.055C204.266 273.941 181.7 277.921 63.2422 298.807" stroke="#005293" stroke-width="0.933054" stroke-miterlimit="10"/>
<path d="M315.58 233.43C211.412 293.571 191.566 305.031 87.3984 365.172" stroke="#005293" stroke-width="0.933054" stroke-miterlimit="10"/>
<path d="M302.154 217.43C224.835 309.574 210.109 327.124 132.789 419.269" stroke="#005293" stroke-width="0.933054" stroke-miterlimit="10"/>
<path d="M284.069 206.992C242.931 320.022 235.091 341.553 193.953 454.584" stroke="#005293" stroke-width="0.933054" stroke-miterlimit="10"/>
<path d="M386.876 158.985C227.843 270.638 229.505 250.583 368.001 386.876C256.348 227.843 276.402 229.505 140.109 368.001C299.142 256.348 297.48 276.402 158.985 140.109C270.638 299.142 250.583 297.48 386.876 158.985V158.985Z" stroke="#005293" stroke-width="0.933054" stroke-miterlimit="10"/>
<path d="M176.403 160.672C291.816 274.254 293.199 257.535 160.672 350.58C274.254 235.167 257.535 233.784 350.58 366.311C235.167 252.729 233.784 269.448 366.311 176.403C252.729 291.816 269.448 293.199 176.403 160.672Z" stroke="#005293" stroke-width="0.933054" stroke-miterlimit="10"/>
<path d="M345.749 193.816C239.727 268.253 240.837 254.881 333.168 345.741C258.73 239.72 272.102 240.83 181.242 333.16C287.264 258.723 286.154 272.094 193.824 181.234C268.261 287.256 254.889 286.146 345.749 193.816V193.816Z" stroke="#005293" stroke-width="0.933054" stroke-miterlimit="10"/>
<path d="M211.234 201.797C280.482 269.946 281.313 259.916 201.797 315.745C269.946 246.498 259.916 245.667 315.745 325.183C246.498 257.034 245.667 267.064 325.183 211.234C257.034 280.482 267.064 281.313 211.234 201.797Z" stroke="#005293" stroke-width="0.933054" stroke-miterlimit="10"/>
<path d="M304.619 228.653C251.608 265.869 252.16 259.186 298.325 304.619C261.109 251.608 267.792 252.16 222.359 298.325C275.37 261.109 274.818 267.792 228.653 222.359C265.869 275.37 259.186 274.818 304.619 228.653V228.653Z" stroke="#005293" stroke-width="0.933054" stroke-miterlimit="10"/>
<path d="M246.074 242.93C269.156 265.646 269.435 262.305 242.93 280.913C265.646 257.83 262.305 257.551 280.913 284.056C257.83 261.34 257.551 264.681 284.056 246.074C261.34 269.156 264.681 269.435 246.074 242.93Z" stroke="#005293" stroke-width="0.933054" stroke-miterlimit="10"/>
<path d="M226.586 294.761C300.419 232.225 276.139 252.791 349.972 190.25" stroke="#005293" stroke-width="0.933054" stroke-miterlimit="10"/>
<path d="M281.823 308.267C245.16 218.726 257.218 248.172 220.555 158.625" stroke="#005293" stroke-width="0.933054" stroke-miterlimit="10"/>
<path d="M311.739 259.891C215.248 267.085 246.983 264.72 150.492 271.914" stroke="#005293" stroke-width="0.933054" stroke-miterlimit="10"/>
<path d="M274.983 216.5C252.011 310.492 259.566 279.582 236.594 373.574" stroke="#005293" stroke-width="0.933054" stroke-miterlimit="10"/>
<path d="M222.344 238.047C304.638 288.942 277.575 272.206 359.863 323.096" stroke="#005293" stroke-width="0.933054" stroke-miterlimit="10"/>
</g>
<defs>
<clipPath id="clip0_317_7">
<rect width="527" height="527" fill="white"/>
</clipPath>
</defs>
</svg>
