<svg width="184" height="43" viewBox="0 0 184 43" fill="none" xmlns="http://www.w3.org/2000/svg">
<path d="M20.1201 35.185C13.8936 40.2975 4.97516 32.87 2.2012 27.6386C0.262407 23.9808 -0.565308 19.5047 0.411544 15.4902C0.866414 15.6161 1.6121 15.7769 2.00732 15.8609C1.44059 19.7005 2.31305 23.1555 4.63214 26.3727C6.5411 29.0164 11.0003 31.3733 13.2076 29.457C16.0934 26.9462 10.2621 19.8824 8.79308 17.7982C4.06542 11.126 5.14667 4.70564 13.312 1.7752C14.766 1.25765 16.5482 0.977897 18.0098 0.789062C18.3081 1.04784 18.9717 1.74023 19.2625 2.006C15.5192 2.53054 12.4693 5.06932 12.0741 8.66417C11.8429 10.7833 12.6856 13.3151 15.0643 16.6931C17.279 19.8404 19.8889 23.3653 21.261 26.6594C22.6331 29.9466 22.7822 33.0029 20.1201 35.185ZM184 31.0936H178.385C173.158 31.0936 170.481 28.24 170.481 23.2394V1.83115H175.059V7.68503H184V11.7834H175.059V22.9037C175.059 25.981 175.566 27.0021 179.213 27.0021H184V31.0936ZM156.38 11.3778C151.428 11.3778 147.946 14.9097 147.946 19.4907C147.946 24.1207 151.287 27.4987 156.283 27.4987C162.218 27.4987 164.851 23.2114 164.567 19.0641C164.299 15.1615 161.465 11.3778 156.38 11.3778ZM131.064 11.3778C126.112 11.3778 122.63 14.9097 122.63 19.4907C122.63 24.1207 125.971 27.4987 130.967 27.4987C136.902 27.4987 139.535 23.2114 139.251 19.0641C138.983 15.1615 136.142 11.3778 131.064 11.3778ZM116.366 31.0936L106.411 31.1145C100.684 31.1215 95.1662 28.1351 93.4958 22.8128C92.079 28.0092 87.1575 31.5831 80.9683 31.5831C78.8952 31.5831 74.5106 31.0586 72.4823 28.331V41.7732H67.9262V27.3308C66.7032 29.9955 63.631 31.0936 60.2978 31.0936H48.1207L48.1431 27.0161H60.0293C61.5431 27.0161 63.81 27.0791 63.81 25.0718C63.81 23.4842 62.4006 22.8478 61.0136 22.4002C58.7318 21.7497 56.4724 21.0923 54.2353 20.4069C50.1862 19.0151 47.5167 16.7001 48.2773 12.343C48.9484 8.60822 53.6388 7.77595 56.9198 7.77595H67.3222V11.8534H55.6298C54.4068 11.8534 52.7812 12.2311 52.7812 13.6508C52.7812 15.1405 54.1757 15.77 55.4732 16.1756C57.6804 16.826 59.91 17.4555 62.1545 18.0709C64.5706 18.8822 66.8897 20.1062 67.9187 22.1624C67.9411 19.6935 68.1126 17.7912 68.4332 16.4693C69.7978 10.8463 74.7641 7.29337 80.8042 7.29337C87.0605 7.29337 91.9746 11.0071 93.4436 16.2945C95.0394 10.8882 100.423 6.83877 106.516 7.09055C111.914 7.30736 116.992 10.9512 118.566 15.8049C120.199 10.7763 124.994 7.28638 131.056 7.28638C137.096 7.28638 142.07 10.8393 143.427 16.4624C143.472 16.6442 143.509 16.833 143.554 17.0358C144.754 11.3568 149.825 7.28638 156.38 7.28638C162.42 7.28638 167.394 10.8393 168.751 16.4624C169.094 17.8891 169.273 19.9733 169.273 22.7289V31.0796H164.717V28.31C162.688 31.0446 158.296 31.5621 156.231 31.5621C150.377 31.5621 145.657 28.3659 143.964 23.6311C144.009 27.2189 144.396 30.7369 143.338 34.2338C141.742 39.5212 136.589 42.1439 131.019 42.1439C128.2 42.1439 125.463 41.5774 122.786 40.7871L123.875 36.9055C126.097 37.465 128.446 38.0734 130.758 38.0734C135.59 38.0734 138.841 35.9403 139.326 31.2824C139.43 30.2962 139.4 29.3031 139.4 28.31C137.372 31.0446 132.98 31.5621 130.914 31.5621C123.912 31.5621 118.529 26.9881 118.014 20.6587C111.206 20.6657 104.383 20.6727 97.5896 20.6727C98.0296 24.9809 102.176 27.0511 106.426 27.0301C106.62 27.0301 116.165 27.0091 116.366 26.9881V31.0936ZM80.8042 11.3778C75.7261 11.3778 72.885 15.1615 72.624 19.0641C72.3406 23.2114 74.9729 27.4987 80.9086 27.4987C85.9047 27.4987 89.2454 24.1137 89.2454 19.4907C89.2454 14.9097 85.7556 11.3778 80.8042 11.3778ZM113.987 16.826C113.219 13.7068 109.886 11.3988 106.545 11.2169C102.742 11.0071 99.1705 13.427 98.1713 16.861L113.987 16.826ZM20.1574 3.46772C26.3839 -1.63781 35.3023 5.78269 38.0763 11.0141C40.0151 14.6719 40.8428 19.148 39.8659 23.1625C39.4931 23.0716 38.7026 22.8757 38.2701 22.7918C38.8369 18.9522 37.9644 15.5042 35.6453 12.28C33.7364 9.63632 29.2771 7.27938 27.0699 9.19571C24.1841 11.7065 30.0079 18.7703 31.4844 20.8545C36.212 27.5337 35.1233 33.954 26.9655 36.8845C25.5114 37.402 23.7292 37.6818 22.2677 37.8706C21.9694 37.6118 21.3057 36.9195 21.0149 36.6537C24.7583 36.1291 27.8081 33.5904 28.2033 29.9955C28.4345 27.8764 27.5919 25.3446 25.2131 21.9665C22.9984 18.8193 20.3885 15.2944 19.0165 12.0003C17.6444 8.70614 17.4953 5.64981 20.1574 3.46772Z" fill="#005293"/>
</svg>
